<svg xmlns="http://www.w3.org/2000/svg" xmlns:xlink="http://www.w3.org/1999/xlink" width="300" zoomAndPan="magnify" viewBox="0 0 224.87999 225" height="300" preserveAspectRatio="xMidYMid meet" version="1.0"><defs><g/><clipPath id="34a33d3440"><path d="M 19.628906 19.6875 L 205.527344 19.6875 L 205.527344 205.589844 L 19.628906 205.589844 Z M 19.628906 19.6875 " clip-rule="nonzero"/></clipPath><clipPath id="3f209d403a"><path d="M 102.542969 0.0585938 L 122.03125 0.0585938 L 122.03125 224.9375 L 102.542969 224.9375 Z M 102.542969 0.0585938 " clip-rule="nonzero"/></clipPath><clipPath id="68f2632ee2"><path d="M 56.332031 50.785156 L 86.734375 50.785156 L 86.734375 77.398438 L 56.332031 77.398438 Z M 56.332031 50.785156 " clip-rule="nonzero"/></clipPath><clipPath id="f17d937b83"><path d="M 53.003906 52.199219 L 82.886719 52.199219 L 82.886719 82.257812 L 53.003906 82.257812 Z M 53.003906 52.199219 " clip-rule="nonzero"/></clipPath><clipPath id="a1bb782298"><path d="M 140.777344 142.601562 L 173.011719 142.601562 L 173.011719 174.835938 L 140.777344 174.835938 Z M 140.777344 142.601562 " clip-rule="nonzero"/></clipPath></defs><g clip-path="url(#34a33d3440)"><path fill="#ffffff" d="M 112.578125 19.6875 C 61.242188 19.6875 19.628906 61.304688 19.628906 112.636719 C 19.628906 163.972656 61.242188 205.589844 112.578125 205.589844 C 163.914062 205.589844 205.527344 163.972656 205.527344 112.636719 C 205.527344 61.304688 163.914062 19.6875 112.578125 19.6875 " fill-opacity="1" fill-rule="nonzero"/></g><g clip-path="url(#3f209d403a)"><path fill="#fff" d="M 102.542969 0.0703125 L 122.03125 0.0703125 L 122.03125 224.929688 L 102.542969 224.929688 L 102.542969 0.0703125 " fill-opacity="1" fill-rule="nonzero"/></g><g clip-path="url(#68f2632ee2)"><path fill="#299740" d="M 86.574219 51.183594 C 86.09375 51.058594 85.609375 50.933594 85.128906 50.808594 C 85.09375 50.789062 85.046875 50.78125 84.992188 50.789062 C 84.96875 50.792969 84.945312 50.800781 84.925781 50.808594 C 84.832031 50.839844 84.738281 50.875 84.648438 50.90625 C 84.332031 51.023438 84.023438 51.152344 83.722656 51.289062 C 83.261719 51.492188 82.816406 51.714844 82.375 51.953125 C 81.785156 52.269531 81.207031 52.613281 80.648438 52.976562 C 79.949219 53.429688 79.273438 53.910156 78.617188 54.417969 C 77.855469 55.011719 77.128906 55.640625 76.433594 56.300781 C 75.628906 57.058594 74.871094 57.855469 74.160156 58.6875 C 73.351562 59.628906 72.59375 60.609375 71.898438 61.625 C 71.109375 62.769531 70.390625 63.953125 69.742188 65.167969 C 69.007812 66.535156 68.359375 67.941406 67.785156 69.375 C 67.675781 69.652344 67.566406 69.933594 67.460938 70.210938 C 67.089844 69.921875 66.71875 69.632812 66.351562 69.34375 C 65.378906 68.582031 64.410156 67.824219 63.441406 67.0625 C 62.546875 66.363281 61.65625 65.667969 60.765625 64.96875 C 60.539062 64.789062 60.3125 64.613281 60.085938 64.4375 C 60.027344 64.390625 59.976562 64.347656 59.90625 64.320312 C 59.679688 64.234375 59.445312 64.125 59.214844 64.066406 C 59.125 64.042969 59.011719 64.074219 58.921875 64.085938 C 58.765625 64.109375 58.609375 64.136719 58.453125 64.160156 C 58.355469 64.175781 58.222656 64.171875 58.140625 64.230469 C 58.09375 64.265625 58.070312 64.304688 58.046875 64.351562 C 57.796875 64.761719 57.546875 65.171875 57.296875 65.582031 C 57.015625 66.039062 56.738281 66.5 56.457031 66.957031 C 56.394531 67.0625 56.320312 67.152344 56.34375 67.28125 C 56.367188 67.433594 56.402344 67.582031 56.429688 67.730469 C 56.542969 68.304688 56.652344 68.875 56.765625 69.449219 C 56.800781 69.625 56.828125 69.804688 56.867188 69.976562 C 56.894531 70.082031 56.96875 70.132812 57.070312 70.171875 C 57.15625 70.203125 57.246094 70.238281 57.332031 70.269531 C 57.363281 70.28125 57.394531 70.292969 57.425781 70.304688 C 57.445312 70.3125 57.460938 70.320312 57.480469 70.324219 C 57.488281 70.328125 57.496094 70.332031 57.503906 70.335938 C 57.507812 70.335938 57.507812 70.335938 57.507812 70.335938 C 57.597656 70.371094 57.683594 70.40625 57.773438 70.441406 C 58.273438 70.640625 58.769531 70.847656 59.261719 71.066406 C 60.738281 71.714844 62.183594 72.425781 63.574219 73.21875 C 65.214844 74.148438 66.792969 75.1875 68.195312 76.40625 C 68.53125 76.699219 68.855469 77.003906 69.167969 77.316406 C 69.277344 77.425781 69.5 77.375 69.535156 77.230469 C 69.578125 77.042969 69.625 76.863281 69.675781 76.679688 C 69.8125 76.167969 69.960938 75.664062 70.121094 75.160156 C 70.359375 74.390625 70.617188 73.628906 70.894531 72.871094 C 71.242188 71.910156 71.617188 70.957031 72.023438 70.011719 C 72.484375 68.925781 72.988281 67.855469 73.527344 66.800781 C 74.117188 65.644531 74.757812 64.507812 75.453125 63.398438 C 76.175781 62.242188 76.953125 61.113281 77.800781 60.035156 C 78.664062 58.933594 79.601562 57.882812 80.617188 56.898438 C 81.636719 55.914062 82.734375 54.996094 83.921875 54.1875 C 84.519531 53.78125 85.140625 53.398438 85.78125 53.046875 C 85.929688 52.96875 86.148438 52.898438 86.21875 52.746094 C 86.242188 52.695312 86.261719 52.640625 86.28125 52.589844 C 86.371094 52.351562 86.464844 52.113281 86.554688 51.875 C 86.613281 51.726562 86.667969 51.578125 86.726562 51.433594 C 86.765625 51.328125 86.679688 51.210938 86.574219 51.183594 " fill-opacity="1" fill-rule="nonzero"/></g><g clip-path="url(#f17d937b83)"><path fill="#299740" d="M 79.96875 58.324219 C 79.367188 58.964844 78.785156 59.648438 78.222656 60.367188 C 78.207031 60.386719 78.191406 60.40625 78.171875 60.425781 C 79.464844 62.378906 80.214844 64.722656 80.214844 67.238281 C 80.214844 74.039062 74.710938 79.578125 67.941406 79.578125 C 61.175781 79.578125 55.667969 74.039062 55.667969 67.238281 C 55.667969 60.433594 61.175781 54.898438 67.941406 54.898438 C 70.523438 54.898438 72.921875 55.703125 74.898438 57.074219 C 75.28125 56.671875 75.671875 56.285156 76.066406 55.910156 C 76.328125 55.664062 76.59375 55.421875 76.859375 55.183594 C 75.902344 54.46875 74.867188 53.867188 73.757812 53.398438 C 71.914062 52.613281 69.957031 52.214844 67.941406 52.214844 C 65.925781 52.214844 63.96875 52.613281 62.125 53.398438 C 60.347656 54.152344 58.75 55.238281 57.378906 56.617188 C 56.007812 57.996094 54.929688 59.601562 54.179688 61.390625 C 53.398438 63.242188 53.003906 65.210938 53.003906 67.238281 C 53.003906 69.265625 53.398438 71.230469 54.179688 73.082031 C 54.929688 74.871094 56.007812 76.476562 57.378906 77.855469 C 58.75 79.234375 60.347656 80.320312 62.125 81.074219 C 63.96875 81.859375 65.925781 82.257812 67.941406 82.257812 C 69.957031 82.257812 71.914062 81.859375 73.757812 81.074219 C 75.535156 80.320312 77.132812 79.234375 78.503906 77.855469 C 79.878906 76.476562 80.953125 74.871094 81.707031 73.082031 C 82.484375 71.230469 82.882812 69.265625 82.882812 67.238281 C 82.882812 65.210938 82.484375 63.242188 81.707031 61.390625 C 81.246094 60.296875 80.664062 59.269531 79.96875 58.324219 " fill-opacity="1" fill-rule="nonzero"/></g><g fill="#000000" fill-opacity="1"><g transform="translate(56.492024, 87.65726)"><g><path d="M 9.421875 7.28125 L 0 7.28125 L 0 2.578125 L 25 2.578125 L 25 12.359375 C 25 13.640625 24.789062 14.753906 24.375 15.703125 C 23.957031 16.660156 23.40625 17.453125 22.71875 18.078125 C 22.039062 18.710938 21.265625 19.191406 20.390625 19.515625 C 19.523438 19.835938 18.644531 20 17.75 20 L 16.890625 20 C 15.960938 20 15.050781 19.835938 14.15625 19.515625 C 13.257812 19.191406 12.460938 18.710938 11.765625 18.078125 C 11.066406 17.453125 10.5 16.660156 10.0625 15.703125 C 9.632812 14.753906 9.421875 13.640625 9.421875 12.359375 Z M 13.921875 7.28125 L 13.921875 11.890625 C 13.921875 12.929688 14.207031 13.753906 14.78125 14.359375 C 15.351562 14.972656 16.09375 15.28125 17 15.28125 L 17.421875 15.28125 C 18.328125 15.28125 19.066406 14.972656 19.640625 14.359375 C 20.210938 13.753906 20.5 12.929688 20.5 11.890625 L 20.5 7.28125 Z M 13.921875 7.28125 "/></g></g></g><g fill="#000000" fill-opacity="1"><g transform="translate(56.492024, 109.505509)"><g><path d="M 0 19.390625 L 0 14.671875 L 7.5 14.671875 C 8.070312 14.671875 8.535156 14.519531 8.890625 14.21875 C 9.242188 13.925781 9.421875 13.4375 9.421875 12.75 L 9.421875 7.3125 L 0 7.3125 L 0 2.609375 L 25 2.609375 L 25 12.171875 C 25 13.460938 24.816406 14.59375 24.453125 15.5625 C 24.097656 16.539062 23.601562 17.359375 22.96875 18.015625 C 22.34375 18.671875 21.613281 19.171875 20.78125 19.515625 C 19.945312 19.859375 19.050781 20.03125 18.09375 20.03125 L 17.25 20.03125 C 16.21875 20.03125 15.253906 19.753906 14.359375 19.203125 C 13.472656 18.660156 12.789062 17.816406 12.3125 16.671875 L 11.671875 16.671875 C 11.578125 17.503906 11.253906 18.164062 10.703125 18.65625 C 10.160156 19.144531 9.472656 19.390625 8.640625 19.390625 Z M 13.921875 7.3125 L 13.921875 11.8125 C 13.921875 12.957031 14.1875 13.828125 14.71875 14.421875 C 15.257812 15.015625 16.019531 15.3125 17 15.3125 L 17.421875 15.3125 C 18.253906 15.3125 18.972656 15.015625 19.578125 14.421875 C 20.191406 13.828125 20.5 12.957031 20.5 11.8125 L 20.5 7.3125 Z M 13.921875 7.3125 "/></g></g></g><g fill="#000000" fill-opacity="1"><g transform="translate(56.492024, 131.353757)"><g><path d="M 15.28125 1.71875 C 18.519531 1.71875 21.03125 2.53125 22.8125 4.15625 C 24.59375 5.789062 25.484375 8.046875 25.484375 10.921875 C 25.484375 13.804688 24.59375 16.0625 22.8125 17.6875 C 21.03125 19.320312 18.519531 20.140625 15.28125 20.140625 L 9.71875 20.140625 C 6.382812 20.140625 3.847656 19.320312 2.109375 17.6875 C 0.367188 16.0625 -0.5 13.804688 -0.5 10.921875 C -0.5 8.046875 0.367188 5.789062 2.109375 4.15625 C 3.847656 2.53125 6.382812 1.71875 9.71875 1.71875 Z M 3.78125 10.921875 C 3.78125 11.773438 3.914062 12.488281 4.1875 13.0625 C 4.46875 13.632812 4.859375 14.097656 5.359375 14.453125 C 5.859375 14.816406 6.453125 15.066406 7.140625 15.203125 C 7.828125 15.347656 8.585938 15.421875 9.421875 15.421875 L 15.5625 15.421875 C 16.351562 15.421875 17.09375 15.335938 17.78125 15.171875 C 18.46875 15.003906 19.0625 14.742188 19.5625 14.390625 C 20.0625 14.035156 20.457031 13.570312 20.75 13 C 21.050781 12.425781 21.203125 11.734375 21.203125 10.921875 C 21.203125 10.117188 21.050781 9.429688 20.75 8.859375 C 20.457031 8.285156 20.0625 7.816406 19.5625 7.453125 C 19.0625 7.097656 18.46875 6.835938 17.78125 6.671875 C 17.09375 6.503906 16.351562 6.421875 15.5625 6.421875 L 9.421875 6.421875 C 8.585938 6.421875 7.828125 6.492188 7.140625 6.640625 C 6.453125 6.785156 5.859375 7.035156 5.359375 7.390625 C 4.859375 7.742188 4.46875 8.207031 4.1875 8.78125 C 3.914062 9.351562 3.78125 10.066406 3.78125 10.921875 Z M 3.78125 10.921875 "/></g></g></g><g fill="#000000" fill-opacity="1"><g transform="translate(56.492024, 153.202005)"><g><path d="M 17.359375 15.203125 C 18.347656 15.203125 19.210938 14.816406 19.953125 14.046875 C 20.691406 13.273438 21.0625 12.1875 21.0625 10.78125 C 21.0625 9.59375 20.816406 8.648438 20.328125 7.953125 C 19.835938 7.265625 19.175781 6.921875 18.34375 6.921875 C 17.914062 6.921875 17.53125 7.003906 17.1875 7.171875 C 16.84375 7.335938 16.535156 7.628906 16.265625 8.046875 C 15.992188 8.460938 15.75 9.007812 15.53125 9.6875 C 15.3125 10.375 15.109375 11.238281 14.921875 12.28125 C 14.441406 14.894531 13.644531 16.890625 12.53125 18.265625 C 11.414062 19.648438 9.757812 20.34375 7.5625 20.34375 L 7.140625 20.34375 C 5.972656 20.34375 4.921875 20.132812 3.984375 19.71875 C 3.046875 19.300781 2.242188 18.703125 1.578125 17.921875 C 0.910156 17.140625 0.394531 16.1875 0.03125 15.0625 C -0.320312 13.945312 -0.5 12.6875 -0.5 11.28125 C -0.5 9.632812 -0.269531 8.1875 0.1875 6.9375 C 0.65625 5.6875 1.300781 4.644531 2.125 3.8125 C 2.945312 2.988281 3.910156 2.359375 5.015625 1.921875 C 6.117188 1.492188 7.328125 1.28125 8.640625 1.28125 L 9.71875 1.28125 L 9.71875 6 L 8.859375 6 C 7.359375 6 6.160156 6.429688 5.265625 7.296875 C 4.367188 8.171875 3.921875 9.523438 3.921875 11.359375 C 3.921875 12.785156 4.226562 13.84375 4.84375 14.53125 C 5.46875 15.21875 6.207031 15.5625 7.0625 15.5625 C 7.46875 15.5625 7.851562 15.488281 8.21875 15.34375 C 8.59375 15.207031 8.925781 14.957031 9.21875 14.59375 C 9.519531 14.238281 9.789062 13.75 10.03125 13.125 C 10.269531 12.507812 10.472656 11.726562 10.640625 10.78125 C 10.847656 9.519531 11.125 8.363281 11.46875 7.3125 C 11.820312 6.269531 12.28125 5.359375 12.84375 4.578125 C 13.414062 3.804688 14.128906 3.207031 14.984375 2.78125 C 15.847656 2.351562 16.898438 2.140625 18.140625 2.140625 L 18.34375 2.140625 C 19.375 2.140625 20.320312 2.347656 21.1875 2.765625 C 22.0625 3.179688 22.816406 3.765625 23.453125 4.515625 C 24.097656 5.265625 24.597656 6.164062 24.953125 7.21875 C 25.304688 8.28125 25.484375 9.46875 25.484375 10.78125 C 25.484375 12.257812 25.273438 13.566406 24.859375 14.703125 C 24.453125 15.847656 23.890625 16.804688 23.171875 17.578125 C 22.453125 18.359375 21.628906 18.941406 20.703125 19.328125 C 19.773438 19.722656 18.800781 19.921875 17.78125 19.921875 L 16.5 19.921875 L 16.5 15.203125 Z M 17.359375 15.203125 "/></g></g></g><path fill="#ff0000" d="M 164.695312 154.058594 C 165.683594 153.234375 165.855469 151.78125 165.082031 150.75 L 165.070312 150.730469 L 164.792969 150.359375 C 164.160156 149.515625 162.953125 149.367188 162.136719 150.035156 C 160.730469 151.179688 158.515625 153.074219 156.160156 155.445312 C 154.445312 153.472656 153.050781 151.628906 152.261719 150.546875 C 151.867188 150.003906 151.109375 149.875 150.554688 150.253906 L 150.515625 150.28125 C 148.925781 151.367188 148.578125 153.566406 149.757812 155.085938 C 150.558594 156.125 151.554688 157.359375 152.683594 158.65625 C 152.765625 158.75 152.847656 158.84375 152.929688 158.9375 C 151.003906 161.195312 149.867188 162.570312 148.527344 165.144531 C 147.761719 166.617188 148.476562 168.425781 150.035156 168.984375 L 150.078125 169 C 150.96875 169.320312 151.957031 168.910156 152.359375 168.054688 C 153.453125 165.71875 154.414062 164.515625 156.210938 162.378906 C 157.933594 164.035156 159.578125 165.351562 161.125 166.320312 C 162.355469 167.085938 163.984375 166.558594 164.53125 165.214844 L 164.546875 165.171875 C 164.976562 164.117188 164.585938 162.90625 163.617188 162.300781 C 162.335938 161.5 160.921875 160.355469 159.40625 158.894531 C 161.425781 156.859375 163.359375 155.171875 164.695312 154.058594 " fill-opacity="1" fill-rule="nonzero"/><g clip-path="url(#a1bb782298)"><path fill="#ff0000" d="M 156.894531 145.0625 C 149.363281 145.0625 143.238281 151.1875 143.238281 158.714844 C 143.238281 166.246094 149.363281 172.371094 156.894531 172.371094 C 164.421875 172.371094 170.546875 166.246094 170.546875 158.714844 C 170.546875 151.1875 164.421875 145.0625 156.894531 145.0625 Z M 156.894531 174.832031 C 152.589844 174.832031 148.542969 173.15625 145.496094 170.109375 C 142.453125 167.066406 140.777344 163.019531 140.777344 158.714844 C 140.777344 154.410156 142.453125 150.363281 145.496094 147.320312 C 148.542969 144.277344 152.589844 142.601562 156.894531 142.601562 C 161.195312 142.601562 165.242188 144.277344 168.289062 147.320312 C 171.332031 150.363281 173.007812 154.410156 173.007812 158.714844 C 173.007812 163.019531 171.332031 167.066406 168.289062 170.109375 C 165.242188 173.15625 161.195312 174.832031 156.894531 174.832031 " fill-opacity="1" fill-rule="nonzero"/></g><g fill="#000000" fill-opacity="1"><g transform="translate(170.505201, 139.040674)"><g><path d="M -3.78125 -11 C -3.78125 -11.90625 -3.914062 -12.648438 -4.1875 -13.234375 C -4.46875 -13.816406 -4.835938 -14.265625 -5.296875 -14.578125 C -5.765625 -14.898438 -6.300781 -15.117188 -6.90625 -15.234375 C -7.507812 -15.359375 -8.132812 -15.421875 -8.78125 -15.421875 L -9.421875 -15.421875 L -9.421875 -20.140625 L -8.78125 -20.140625 C -5.800781 -20.140625 -3.507812 -19.359375 -1.90625 -17.796875 C -0.300781 -16.234375 0.5 -13.96875 0.5 -11 C 0.5 -8.144531 -0.367188 -5.882812 -2.109375 -4.21875 C -3.847656 -2.550781 -6.382812 -1.71875 -9.71875 -1.71875 L -15.28125 -1.71875 C -16.875 -1.71875 -18.304688 -1.929688 -19.578125 -2.359375 C -20.859375 -2.785156 -21.929688 -3.398438 -22.796875 -4.203125 C -23.660156 -5.015625 -24.320312 -5.992188 -24.78125 -7.140625 C -25.25 -8.285156 -25.484375 -9.570312 -25.484375 -11 C -25.484375 -12.46875 -25.269531 -13.773438 -24.84375 -14.921875 C -24.414062 -16.066406 -23.796875 -17.023438 -22.984375 -17.796875 C -22.179688 -18.566406 -21.207031 -19.148438 -20.0625 -19.546875 C -18.914062 -19.941406 -17.628906 -20.140625 -16.203125 -20.140625 L -15.5625 -20.140625 L -15.5625 -15.421875 L -16.203125 -15.421875 C -16.804688 -15.421875 -17.40625 -15.347656 -18 -15.203125 C -18.59375 -15.066406 -19.125 -14.832031 -19.59375 -14.5 C -20.070312 -14.164062 -20.457031 -13.710938 -20.75 -13.140625 C -21.050781 -12.566406 -21.203125 -11.851562 -21.203125 -11 C -21.203125 -10.207031 -21.050781 -9.523438 -20.75 -8.953125 C -20.457031 -8.390625 -20.054688 -7.914062 -19.546875 -7.53125 C -19.035156 -7.15625 -18.441406 -6.875 -17.765625 -6.6875 C -17.085938 -6.507812 -16.378906 -6.421875 -15.640625 -6.421875 L -9.359375 -6.421875 C -8.546875 -6.421875 -7.800781 -6.503906 -7.125 -6.671875 C -6.445312 -6.835938 -5.859375 -7.097656 -5.359375 -7.453125 C -4.859375 -7.816406 -4.46875 -8.289062 -4.1875 -8.875 C -3.914062 -9.457031 -3.78125 -10.164062 -3.78125 -11 Z M -3.78125 -11 "/></g></g></g><g fill="#000000" fill-opacity="1"><g transform="translate(170.505201, 117.192426)"><g><path d="M -15.28125 -1.71875 C -18.519531 -1.71875 -21.03125 -2.53125 -22.8125 -4.15625 C -24.59375 -5.789062 -25.484375 -8.046875 -25.484375 -10.921875 C -25.484375 -13.804688 -24.59375 -16.0625 -22.8125 -17.6875 C -21.03125 -19.320312 -18.519531 -20.140625 -15.28125 -20.140625 L -9.71875 -20.140625 C -6.382812 -20.140625 -3.847656 -19.320312 -2.109375 -17.6875 C -0.367188 -16.0625 0.5 -13.804688 0.5 -10.921875 C 0.5 -8.046875 -0.367188 -5.789062 -2.109375 -4.15625 C -3.847656 -2.53125 -6.382812 -1.71875 -9.71875 -1.71875 Z M -3.78125 -10.921875 C -3.78125 -11.773438 -3.914062 -12.488281 -4.1875 -13.0625 C -4.46875 -13.632812 -4.859375 -14.097656 -5.359375 -14.453125 C -5.859375 -14.816406 -6.453125 -15.066406 -7.140625 -15.203125 C -7.828125 -15.347656 -8.585938 -15.421875 -9.421875 -15.421875 L -15.5625 -15.421875 C -16.351562 -15.421875 -17.09375 -15.335938 -17.78125 -15.171875 C -18.46875 -15.003906 -19.0625 -14.742188 -19.5625 -14.390625 C -20.0625 -14.035156 -20.457031 -13.570312 -20.75 -13 C -21.050781 -12.425781 -21.203125 -11.734375 -21.203125 -10.921875 C -21.203125 -10.117188 -21.050781 -9.429688 -20.75 -8.859375 C -20.457031 -8.285156 -20.0625 -7.816406 -19.5625 -7.453125 C -19.0625 -7.097656 -18.46875 -6.835938 -17.78125 -6.671875 C -17.09375 -6.503906 -16.351562 -6.421875 -15.5625 -6.421875 L -9.421875 -6.421875 C -8.585938 -6.421875 -7.828125 -6.492188 -7.140625 -6.640625 C -6.453125 -6.785156 -5.859375 -7.035156 -5.359375 -7.390625 C -4.859375 -7.742188 -4.46875 -8.207031 -4.1875 -8.78125 C -3.914062 -9.351562 -3.78125 -10.066406 -3.78125 -10.921875 Z M -3.78125 -10.921875 "/></g></g></g><g fill="#000000" fill-opacity="1"><g transform="translate(170.505201, 95.344178)"><g><path d="M -2.359375 -14.3125 L -2.359375 -14.953125 L -25 -14.953125 L -25 -19.671875 L 0 -19.671875 L 0 -10.46875 L -22.640625 -7.53125 L -22.640625 -6.890625 L 0 -6.890625 L 0 -2.171875 L -25 -2.171875 L -25 -11.390625 Z M -2.359375 -14.3125 "/></g></g></g><g fill="#000000" fill-opacity="1"><g transform="translate(170.505201, 73.49593)"><g><path d="M -17.359375 -15.203125 C -18.347656 -15.203125 -19.210938 -14.816406 -19.953125 -14.046875 C -20.691406 -13.273438 -21.0625 -12.1875 -21.0625 -10.78125 C -21.0625 -9.59375 -20.816406 -8.648438 -20.328125 -7.953125 C -19.835938 -7.265625 -19.175781 -6.921875 -18.34375 -6.921875 C -17.914062 -6.921875 -17.53125 -7.003906 -17.1875 -7.171875 C -16.84375 -7.335938 -16.535156 -7.628906 -16.265625 -8.046875 C -15.992188 -8.460938 -15.75 -9.007812 -15.53125 -9.6875 C -15.3125 -10.375 -15.109375 -11.238281 -14.921875 -12.28125 C -14.441406 -14.894531 -13.644531 -16.890625 -12.53125 -18.265625 C -11.414062 -19.648438 -9.757812 -20.34375 -7.5625 -20.34375 L -7.140625 -20.34375 C -5.972656 -20.34375 -4.921875 -20.132812 -3.984375 -19.71875 C -3.046875 -19.300781 -2.242188 -18.703125 -1.578125 -17.921875 C -0.910156 -17.140625 -0.394531 -16.1875 -0.03125 -15.0625 C 0.320312 -13.945312 0.5 -12.6875 0.5 -11.28125 C 0.5 -9.632812 0.269531 -8.1875 -0.1875 -6.9375 C -0.65625 -5.6875 -1.300781 -4.644531 -2.125 -3.8125 C -2.945312 -2.988281 -3.910156 -2.359375 -5.015625 -1.921875 C -6.117188 -1.492188 -7.328125 -1.28125 -8.640625 -1.28125 L -9.71875 -1.28125 L -9.71875 -6 L -8.859375 -6 C -7.359375 -6 -6.160156 -6.429688 -5.265625 -7.296875 C -4.367188 -8.171875 -3.921875 -9.523438 -3.921875 -11.359375 C -3.921875 -12.785156 -4.226562 -13.84375 -4.84375 -14.53125 C -5.46875 -15.21875 -6.207031 -15.5625 -7.0625 -15.5625 C -7.46875 -15.5625 -7.851562 -15.488281 -8.21875 -15.34375 C -8.59375 -15.207031 -8.925781 -14.957031 -9.21875 -14.59375 C -9.519531 -14.238281 -9.789062 -13.75 -10.03125 -13.125 C -10.269531 -12.507812 -10.472656 -11.726562 -10.640625 -10.78125 C -10.847656 -9.519531 -11.125 -8.363281 -11.46875 -7.3125 C -11.820312 -6.269531 -12.28125 -5.359375 -12.84375 -4.578125 C -13.414062 -3.804688 -14.128906 -3.207031 -14.984375 -2.78125 C -15.847656 -2.351562 -16.898438 -2.140625 -18.140625 -2.140625 L -18.34375 -2.140625 C -19.375 -2.140625 -20.320312 -2.347656 -21.1875 -2.765625 C -22.0625 -3.179688 -22.816406 -3.765625 -23.453125 -4.515625 C -24.097656 -5.265625 -24.597656 -6.164062 -24.953125 -7.21875 C -25.304688 -8.28125 -25.484375 -9.46875 -25.484375 -10.78125 C -25.484375 -12.257812 -25.273438 -13.566406 -24.859375 -14.703125 C -24.453125 -15.847656 -23.890625 -16.804688 -23.171875 -17.578125 C -22.453125 -18.359375 -21.628906 -18.941406 -20.703125 -19.328125 C -19.773438 -19.722656 -18.800781 -19.921875 -17.78125 -19.921875 L -16.5 -19.921875 L -16.5 -15.203125 Z M -17.359375 -15.203125 "/></g></g></g></svg>